<svg width="32" height="32" viewBox="0 0 32 32" fill="none" xmlns="http://www.w3.org/2000/svg">
<path d="M20.8662 2.66651C21.4323 2.66518 21.8799 3.10496 21.8812 3.69133L21.8825 4.69083C25.5554 4.97869 27.9816 7.48143 27.9855 11.3195L28 22.5539C28.0053 26.7385 25.3763 29.3132 21.1624 29.3198L10.8692 29.3332C6.6816 29.3385 4.01976 26.7025 4.0145 22.5059L4.00001 11.4035C3.99475 7.54007 6.33538 5.04399 10.0082 4.70682L10.0069 3.70732C10.0056 3.12095 10.44 2.67984 11.0193 2.67984C11.5985 2.6785 12.0329 3.11828 12.0342 3.70466L12.0356 4.63752L19.8552 4.62686L19.8539 3.694C19.8526 3.10762 20.287 2.66784 20.8662 2.66651ZM21.4033 21.589H21.3902C20.7846 21.6037 20.2988 22.1114 20.312 22.7245C20.3133 23.3375 20.8017 23.8426 21.4073 23.8559C22.0247 23.8546 22.5249 23.3468 22.5236 22.7205C22.5236 22.0941 22.022 21.589 21.4033 21.589ZM10.5559 21.5904C9.95031 21.617 9.4764 22.1248 9.47771 22.7378C9.50536 23.3508 10.0056 23.8306 10.6112 23.8026C11.2049 23.7759 11.6775 23.2682 11.6498 22.6552C11.6367 22.0555 11.1483 21.589 10.5559 21.5904ZM15.9796 21.5837C15.374 21.6117 14.9014 22.1181 14.9014 22.7311C14.9291 23.3442 15.4293 23.8226 16.0349 23.7959C16.6273 23.7679 17.1012 23.2615 17.0736 22.6472C17.0604 22.0488 16.572 21.5824 15.9796 21.5837ZM10.5493 16.7928C9.94373 16.8194 9.47113 17.3272 9.47244 17.9402C9.49878 18.5532 10.0003 19.033 10.6059 19.005C11.1983 18.9783 11.6709 18.4706 11.6433 17.8576C11.6301 17.2579 11.143 16.7914 10.5493 16.7928ZM15.9743 16.7461C15.3688 16.7728 14.8949 17.2805 14.8962 17.8936C14.9225 18.5066 15.4241 18.985 16.0296 18.9584C16.622 18.9304 17.0946 18.424 17.0683 17.8109C17.0538 17.2112 16.5667 16.7448 15.9743 16.7461ZM21.3981 16.7528C20.7925 16.7661 20.3186 17.2592 20.3199 17.8722V17.8869C20.3331 18.4999 20.8333 18.965 21.4402 18.9517C22.0326 18.937 22.5052 18.4293 22.492 17.8163C22.4644 17.2299 21.9891 16.7515 21.3981 16.7528ZM19.8578 6.67917L12.0382 6.68983L12.0395 7.76795C12.0395 8.34233 11.6064 8.79544 11.0272 8.79544C10.4479 8.79677 10.0122 8.345 10.0122 7.77062L10.0109 6.74447C7.44382 7.00167 6.02338 8.51025 6.02732 11.4008L6.02865 11.8153L25.9595 11.7886V11.3222C25.9029 8.45694 24.4654 6.9537 21.8851 6.72981L21.8865 7.75596C21.8865 8.32901 21.4402 8.78345 20.8741 8.78345C20.2949 8.78478 19.8591 8.33167 19.8591 7.75863L19.8578 6.67917Z" fill="#CBCBCB"/>
</svg>
