<svg width="49" height="48" viewBox="0 0 49 48" fill="none" xmlns="http://www.w3.org/2000/svg">
<rect x="0.5" width="48" height="48" rx="24" fill="white" fill-opacity="0.1"/>
<path fill-rule="evenodd" clip-rule="evenodd" d="M24.5 8C15.675 8 8.5 15.175 8.5 24C8.5 32.825 15.675 40 24.5 40C33.325 40 40.5 32.825 40.5 24C40.5 15.175 33.325 8 24.5 8Z" fill="white"/>
<path fill-rule="evenodd" clip-rule="evenodd" d="M32.2373 18.6063C32.6248 18.9938 32.6248 19.6313 32.2373 20.0188L22.8623 29.3938C22.6686 29.5876 22.4123 29.6876 22.1561 29.6876C21.8998 29.6876 21.6436 29.5876 21.4498 29.3938L16.7623 24.7063C16.3748 24.3188 16.3748 23.6813 16.7623 23.2938C17.1498 22.9063 17.7873 22.9063 18.1748 23.2938L22.1561 27.2751L30.8248 18.6063C31.2123 18.2126 31.8498 18.2126 32.2373 18.6063Z" fill="#008043"/>
</svg>
