<svg width="32" height="32" viewBox="0 0 32 32" fill="none" xmlns="http://www.w3.org/2000/svg">
<path d="M12.0665 2.66672C13.3078 2.65362 14.4665 3.22695 15.2265 4.20028L16.3998 5.76028C16.7732 6.22695 17.3332 6.50695 17.9332 6.50695H22.0265C26.9465 6.50695 29.3465 9.13362 29.3332 14.5203V21.0136C29.3332 26.1603 26.1598 29.3336 20.9998 29.3336H10.9865C5.85317 29.3336 2.6665 26.1603 2.6665 21.0003V10.987C2.6665 5.46695 5.11984 2.66672 9.95984 2.66672H12.0665ZM22.1732 18.387H9.8265C9.2665 18.387 8.8265 18.827 8.8265 19.387C8.8265 19.9336 9.2665 20.387 9.8265 20.387H22.1732C22.7198 20.387 23.1598 19.9336 23.1598 19.387C23.1598 18.827 22.7198 18.387 22.1732 18.387Z" fill="#CBCBCB"/>
</svg>
