<svg width="32" height="32" viewBox="0 0 33 32" fill="none" xmlns="http://www.w3.org/2000/svg">
<path d="M12.6799 27.6976V23.6207C12.6799 22.5799 13.5297 21.7362 14.5781 21.7362H18.4103C18.9137 21.7362 19.3966 21.9348 19.7525 22.2882C20.1085 22.6416 20.3085 23.1209 20.3085 23.6207V27.6976C20.3053 28.1303 20.4763 28.5463 20.7833 28.8534C21.0904 29.1605 21.5082 29.3332 21.9441 29.3332H24.5586C25.7797 29.3363 26.9518 28.857 27.8164 28.0009C28.6809 27.1449 29.1668 25.9825 29.1668 24.7703V13.1556C29.1668 12.1765 28.7296 11.2476 27.973 10.6194L19.0789 3.56766C17.5317 2.33125 15.315 2.37117 13.814 3.66248L5.12285 10.6194C4.33048 11.2291 3.8569 12.1607 3.8335 13.1556V24.7584C3.8335 27.285 5.89667 29.3332 8.44173 29.3332H10.9965C11.9018 29.3332 12.6375 28.6081 12.6441 27.7095L12.6799 27.6976Z" fill="#008043"/>
</svg>
